<svg width="20" height="20" viewBox="0 0 20 20" fill="none" xmlns="http://www.w3.org/2000/svg">
<path fill-rule="evenodd" clip-rule="evenodd" d="M10 13C11.6569 13 13 11.6569 13 10C13 8.34315 11.6569 7 10 7C8.34315 7 7 8.34315 7 10C7 11.6569 8.34315 13 10 13ZM5 5V7V5ZM13 3V5V3ZM7 3L8 4L7 3ZM16 8L17 9L16 8ZM4 8L3 9L4 8ZM10 5L9 6L10 5ZM15 6L14 7L15 6ZM11 2L10 3L11 2ZM7 15V17V15ZM16 11V13V11ZM11 16L10 17L11 16ZM13 14L14 15L13 14ZM5 10V12V10ZM4 13L3 14L4 13ZM10 19C14.9706 19 19 14.9706 19 10C19 5.02944 14.9706 1 10 1C5.02944 1 1 5.02944 1 10C1 14.9706 5.02944 19 10 19Z" stroke="black"/>
</svg>
